<svg version="1.1" viewBox="0.0 0.0 800.0 600.0" fill="none" stroke="none" stroke-linecap="square" stroke-miterlimit="10" xmlns:xlink="http://www.w3.org/1999/xlink" xmlns="http://www.w3.org/2000/svg"><clipPath id="p.0"><path d="m0 0l800.0 0l0 600.0l-800.0 0l0 -600.0z" clip-rule="nonzero"/></clipPath><g clip-path="url(#p.0)"><path fill="#000000" fill-opacity="0.0" d="m0 0l800.0 0l0 600.0l-800.0 0z" fill-rule="evenodd"/><defs><linearGradient id="p.1" gradientUnits="userSpaceOnUse" gradientTransform="matrix(18.385880298535124 -3.869804408372947 3.869804408372947 18.385880298535124 0.0 0.0)" spreadMethod="pad" x1="3.824946367415493" y1="21.841493116565395" x2="22.210826665950616" y2="21.841493116565395"><stop offset="0.0" stop-color="#ffc914"/><stop offset="1.0" stop-color="#e4572e"/></linearGradient></defs><path fill="url(#p.1)" d="m383.05267 221.01494c-10.566589 2.2240295 -21.99881 6.245163 -34.062958 12.018051c-21.562408 10.306198 -40.50421 15.809631 -56.26004 19.12587c-10.152252 2.1368256 -18.983002 3.365326 -26.34143 4.386093c-5.291626 0.73605347 -9.939545 1.3847961 -13.787231 2.194641c-4.9988556 1.0521545 -8.644516 2.3764038 -10.58139 4.5261536c-1.9773254 2.1467285 -2.528885 5.4463806 -1.7373657 10.297943c0.51086426 3.1454163 2.4544678 5.5402527 5.991516 7.322235c9.996857 5.026123 31.836792 4.927185 63.240997 -0.3664856c7.0772095 -1.1850891 13.912415 -2.5158386 20.042297 -3.8060303c14.707642 -3.0956116 25.343536 -5.954773 25.486877 -5.9849243l20.102325 -5.441284l-93.095825 48.00763c-7.9753113 5.1262207 -17.010925 8.752747 -26.410645 10.731171c-8.533005 1.79599 -17.3656 2.2328491 -25.972672 1.1942749l-74.446594 -9.111237c-1.5098114 -0.19485474 -3.0789642 -0.13244629 -4.579529 0.18338013c-1.6394043 0.34506226 -3.1972656 0.9928589 -4.5085907 1.937561c-3.3766785 2.4759521 -4.758301 6.019684 -3.6967163 9.396057c0.7264404 2.2001038 3.5997772 4.607361 6.1306458 5.423645l85.80246 27.693726c11.561676 3.725525 24.247223 4.188965 36.341248 1.6434631c9.314636 -1.9605103 18.282135 -5.707611 26.116241 -11.120148l0.18011475 -0.14196777l82.766785 -39.53589c7.204315 -3.4549866 14.8479 -6.0331116 22.771729 -7.700897l84.14523 -17.710632l-20.856354 -70.12337l-27.184692 18.83757l-1.4641418 -2.1141968c-0.054595947 -0.057876587 -5.7614746 -7.819641 -19.329926 -11.677795c-9.981995 -2.836258 -21.729614 -2.8361053 -34.80237 -0.084609985z" fill-rule="evenodd"/><defs><linearGradient id="p.2" gradientUnits="userSpaceOnUse" gradientTransform="matrix(11.651343130701909 0.0 0.0 11.651343130701909 0.0 0.0)" spreadMethod="pad" x1="15.698983799151474" y1="13.74483793707147" x2="7.461843050292749" y2="21.985184351685703"><stop offset="0.0" stop-color="#17bebb"/><stop offset="0.93" stop-color="#2c3763"/><stop offset="1.0" stop-color="#262d40"/></linearGradient></defs><path fill="url(#p.2)" d="m214.53937 241.1991c0.26387024 0 0.5232544 0.071762085 0.7205963 0.22283936c9.772903 7.719223 12.659027 23.93045 6.014435 34.051056c-0.25564575 0.37994385 -0.6316376 0.6375122 -1.006897 0.6375122c-0.2421875 0 -0.49708557 -0.12234497 -0.6181793 -0.25756836c-0.63090515 -0.37994385 -0.7512512 -1.1398621 -0.3752594 -1.7638245c5.879898 -8.994293 3.1275787 -23.808838 -5.5180817 -30.645782c-0.49635315 -0.3799591 -0.63090515 -1.2622375 -0.25489807 -1.7774048c0.2264862 -0.30215454 0.6383667 -0.4668274 1.0382843 -0.4668274zm-20.57138 -33.059982c-3.9632874 0 -6.992935 6.145767 -8.283127 9.094025c-1.7446747 4.3003845 -2.6312256 9.374268 -5.503891 13.17308l-0.13380432 0.12161255c1.3821411 -1.8990326 -6.8875275 -9.875839 -8.135864 -10.513382c-0.2945099 -0.15863037 -0.58828735 -0.22737122 -0.87905884 -0.22737122c-1.326828 0 -2.5856323 1.4276733 -3.5102997 2.2623596c0.06428528 -0.052871704 0.1465149 -0.078552246 0.24295044 -0.078552246c1.7656097 0 8.523071 8.391525 8.523071 10.076767c0 -1.0174866 -3.8795624 -3.2964783 -4.6315613 -3.7987976c-3.3981628 -2.2276306 -8.756287 -3.9733124 -13.788498 -3.9733124c-4.9873657 0 -9.654053 1.7147217 -11.772491 6.3746643c3.0296478 -2.6559143 7.0684357 -4.0292053 11.087769 -4.0292053c2.3045654 0 4.6024017 0.45095825 6.700653 1.3702698c1.5032349 0.63752747 4.5104523 2.2789764 4.5104523 4.313965c-0.88279724 -0.059661865 -1.7633667 -0.08988953 -2.63945 -0.08988953c-10.315582 0 -20.027939 4.165924 -25.794205 13.506958c-3.3832092 5.439499 -5.020996 11.897263 -5.020996 18.354996c0 21.529114 20.298538 39.12494 46.369324 40.02008c0.75497437 0.026428223 1.5129547 0.040008545 2.2739105 0.040008545c13.623306 0 27.930588 -4.3192444 37.05989 -15.112122c0.25564575 -0.25759888 0.37599182 -0.5015869 0.6316376 -0.7599182c5.893341 -7.3392944 9.65181 -16.97113 9.65181 -26.589386c-0.12110901 -17.10939 -11.310532 -31.962433 -30.291214 -31.962433c-2.0892792 0 -4.272751 0.17977905 -6.5459137 0.5567169c0.61743164 -0.3799591 1.3694305 -0.7599182 2.1214294 -1.1398773c8.524551 -4.421997 17.425125 -7.9768066 26.688217 -10.499786l0 0c-0.417099 0.08988953 -0.8850403 0.11331177 -1.3656921 0.11331177c-0.5269928 0 -1.0689392 -0.027954102 -1.5779877 -0.027954102c-0.28555298 0 -0.5598755 0.009063721 -0.81552124 0.037017822c-9.263107 0.7591553 -18.28476 4.0556335 -25.936249 9.495895c-0.551651 0.3678589 -2.5168457 2.0991974 -3.7218323 2.0991974c-0.43952942 0 -0.7774048 -0.22888184 -0.90971375 -0.8377228c-0.6308899 -2.780548 2.7515717 -4.0427856 4.631546 -5.0602875c2.5101318 -1.5190735 5.638443 -2.7805634 8.027481 -4.557968c-2.2552338 0 -4.3893585 0.7599182 -6.389694 1.641449c-1.022583 0.46757507 -3.6986542 2.4836884 -5.120407 2.4836884c-0.1465149 0 -0.2803192 -0.021911621 -0.39767456 -0.068740845c-2.7515717 -1.1398773 1.2490845 -9.116684 2.0003204 -10.635757c0.8865509 -1.77742 2.7657776 -3.2964783 3.5177612 -5.0738983c-0.29600525 -0.067977905 -0.586792 -0.09970093 -0.8730774 -0.09970093z" fill-rule="evenodd"/><defs><linearGradient id="p.3" gradientUnits="userSpaceOnUse" gradientTransform="matrix(5.4940063700027455 0.0 0.0 5.4940063700027455 0.0 0.0)" spreadMethod="pad" x1="33.29695184140846" y1="24.78701077273635" x2="29.41208122066376" y2="28.671838472095157"><stop offset="0.0" stop-color="#17bebb"/><stop offset="0.5" stop-color="#12918f"/><stop offset="1.0" stop-color="#2c3763"/></linearGradient></defs><path fill="url(#p.3)" d="m182.93422 146.85065c-5.861145 0 -10.671341 4.7866516 -10.671341 10.672043c0 5.8622894 4.810196 10.673401 10.671341 10.673401c5.884262 0 10.669983 -4.7866364 10.669983 -10.673401c0 -5.885391 -4.785721 -10.672043 -10.669983 -10.672043z" fill-rule="evenodd"/><defs><linearGradient id="p.4" gradientUnits="userSpaceOnUse" gradientTransform="matrix(5.4903519379352 0.0 0.0 5.4903519379352 0.0 0.0)" spreadMethod="pad" x1="20.477074405295415" y1="30.127451192423422" x2="16.594786910273346" y2="34.00969387010137"><stop offset="0.0" stop-color="#17bebb"/><stop offset="0.73" stop-color="#2c3763"/><stop offset="1.0" stop-color="#262d40"/></linearGradient></defs><path fill="url(#p.4)" d="m112.429115 176.07095c-2.7286758 0 -5.4573517 1.0389099 -7.532074 3.114029c-4.17527 4.151596 -4.17527 10.941299 0 15.0928955c2.0747223 2.076477 4.810196 3.1018066 7.519844 3.1018066c2.7354736 0 5.469589 -1.0253296 7.545662 -3.1018066c2.0257797 -2.0261688 3.124321 -4.688736 3.124321 -7.545761c0 -2.8583984 -1.0985413 -5.5196075 -3.124321 -7.5471344c-2.0760727 -2.075119 -4.8047485 -3.114029 -7.533432 -3.114029z" fill-rule="evenodd"/><defs><linearGradient id="p.5" gradientUnits="userSpaceOnUse" gradientTransform="matrix(5.490812753428129 0.0 0.0 5.490812753428129 0.0 0.0)" spreadMethod="pad" x1="46.157930562745726" y1="30.124272954439093" x2="42.27531909106665" y2="34.006843347000576"><stop offset="0.0" stop-color="#17bebb"/><stop offset="1.0" stop-color="#14a3a1"/></linearGradient></defs><path fill="url(#p.5)" d="m253.45972 176.07095c-2.7313995 0 -5.466873 1.0389099 -7.553833 3.114029c-2.002655 2.0030518 -3.1256714 4.688736 -3.1256714 7.5471344c0 2.8570251 1.1230164 5.5195923 3.1256714 7.545761c2.0747223 2.076477 4.810196 3.1018066 7.5443115 3.1018066c2.7341309 0 5.4696045 -1.0253296 7.5443115 -3.1018066c4.1521606 -4.151596 4.1521606 -10.941299 0 -15.0928955c-2.074707 -2.075119 -4.803406 -3.114029 -7.53479 -3.114029z" fill-rule="evenodd"/><defs><linearGradient id="p.6" gradientUnits="userSpaceOnUse" gradientTransform="matrix(4.657139736707277 0.0 0.0 4.657139736707277 0.0 0.0)" spreadMethod="pad" x1="39.28286780489259" y1="36.73707460656848" x2="35.98975620503518" y2="40.03015318414638"><stop offset="0.0" stop-color="#17bebb"/><stop offset="0.5" stop-color="#12918f"/><stop offset="1.0" stop-color="#2c3763"/></linearGradient></defs><path fill="url(#p.6)" d="m182.93422 173.78777c-1.490097 0 -2.6865234 1.1966705 -2.6865234 2.6870575l0 19.904007c0 1.4890289 1.1964264 2.6856995 2.6865234 2.6856995c1.488739 0 2.7096405 -1.1966705 2.7096405 -2.6856995l0 -19.904007c0 -1.490387 -1.2209015 -2.6870575 -2.7096405 -2.6870575z" fill-rule="evenodd"/><defs><linearGradient id="p.7" gradientUnits="userSpaceOnUse" gradientTransform="matrix(5.247132318375258 0.0 0.0 5.247132318375258 0.0 0.0)" spreadMethod="pad" x1="25.321724514761275" y1="35.770526916348445" x2="21.61142115425582" y2="39.480789243942006"><stop offset="0.0" stop-color="#17bebb"/><stop offset="0.73" stop-color="#2c3763"/><stop offset="1.0" stop-color="#262d40"/></linearGradient></defs><path fill="url(#p.7)" d="m125.82234 197.42863c-0.6906662 0 -1.3799744 0.2678833 -1.9047699 0.8063812c-1.0495987 1.0498047 -1.0495987 2.7346497 0 3.784439l14.087967 14.092056c0.513916 0.5371399 1.2209015 0.7819061 1.9047699 0.7819061c0.6838684 0 1.3677368 -0.24476624 1.9047699 -0.7819061c1.0495911 -1.0498047 1.0495911 -2.7604828 0 -3.8102875l-14.087967 -14.066208c-0.52615356 -0.5384979 -1.2154617 -0.8063812 -1.9047699 -0.8063812z" fill-rule="evenodd"/><defs><linearGradient id="p.8" gradientUnits="userSpaceOnUse" gradientTransform="matrix(5.245483059895619 0.0 0.0 5.245483059895619 0.0 0.0)" spreadMethod="pad" x1="44.42166721227911" y1="35.78410745371417" x2="40.712529069902175" y2="39.49320259571532"><stop offset="0.0" stop-color="#17bebb"/><stop offset="1.0" stop-color="#14a3a1"/></linearGradient></defs><path fill="url(#p.8)" d="m240.05426 197.42863c-0.6865845 0 -1.3759003 0.2678833 -1.9129333 0.8063812l-14.06485 14.066208c-1.0496063 1.0498047 -1.0496063 2.7604828 0 3.8102875c0.512558 0.5371399 1.2209015 0.7819061 1.9047699 0.7819061c0.6838684 0 1.3677368 -0.24476624 1.9047699 -0.7819061l14.063492 -14.092056c1.0495911 -1.0497894 1.0495911 -2.7346344 0 -3.784439c-0.52479553 -0.5384979 -1.208664 -0.8063812 -1.8952484 -0.8063812z" fill-rule="evenodd"/></g></svg>