<svg version="1.1" viewBox="0.0 0.0 800.0 600.0" fill="none" stroke="none" stroke-linecap="square" stroke-miterlimit="10" xmlns:xlink="http://www.w3.org/1999/xlink" xmlns="http://www.w3.org/2000/svg"><clipPath id="p.0"><path d="m0 0l800.0 0l0 600.0l-800.0 0l0 -600.0z" clip-rule="nonzero"/></clipPath><g clip-path="url(#p.0)"><path fill="#000000" fill-opacity="0.0" d="m0 0l800.0 0l0 600.0l-800.0 0z" fill-rule="evenodd"/><defs><linearGradient id="p.1" gradientUnits="userSpaceOnUse" gradientTransform="matrix(26.00156098496507 -5.47272981715362 5.47272981715362 26.00156098496507 0.0 0.0)" spreadMethod="pad" x1="0.08510682792171906" y1="20.782794322454205" x2="26.08666781288679" y2="20.782794322454205"><stop offset="0.0" stop-color="#ffc914"/><stop offset="1.0" stop-color="#e4572e"/></linearGradient></defs><path fill="url(#p.1)" d="m572.36224 208.4026c-21.133179 4.448044 -43.99762 12.490295 -68.125916 24.036102c-43.124847 20.612381 -81.00842 31.619247 -112.52008 38.251724c-20.304504 4.273651 -37.965973 6.730652 -52.68283 8.772156c-10.583282 1.4721375 -19.87912 2.7696228 -27.574493 4.3893127c-9.997711 2.1042786 -17.289032 4.7528076 -21.16278 9.052338c-3.9546509 4.2934265 -5.05777 10.892731 -3.4747314 20.595856c1.0217285 6.2908325 4.9089355 11.080536 11.983032 14.64444c19.993744 10.052307 63.673615 9.85437 126.481964 -0.73291016c14.15448 -2.3702393 27.82486 -5.031708 40.084595 -7.612091c29.415344 -6.1912537 50.687103 -11.909515 50.973785 -11.969849l40.20465 -10.882599l-186.19162 96.01529c-15.950653 10.252411 -34.02185 17.505493 -52.82135 21.462341c-17.065979 3.5920105 -34.73117 4.4657288 -51.945312 2.3885498l-148.89319 -18.222504c-3.0196228 -0.38964844 -6.157936 -0.26483154 -9.159042 0.3668213c-3.2788162 0.6901245 -6.3945312 1.9856873 -9.017204 3.875122c-6.7533417 4.9518433 -9.516579 12.039337 -7.3934097 18.792084c1.4528656 4.400177 7.199562 9.214752 12.2612915 10.84729l171.60492 55.38742c23.123352 7.4510803 48.494446 8.37796 72.682465 3.2869568c18.629272 -3.921051 36.5643 -11.415253 52.232483 -22.240295l0.36029053 -0.28393555l165.53354 -79.07175c14.40863 -6.9100037 29.6958 -12.066254 45.543457 -15.401825l168.29047 -35.421265l-41.712708 -140.24673l-54.369385 37.67514l-2.9282837 -4.2283936c-0.109191895 -0.11576843 -11.522949 -15.639282 -38.65985 -23.355606c-19.96399 -5.6724854 -43.45923 -5.6722107 -69.60474 -0.16918945z" fill-rule="evenodd"/><defs><linearGradient id="p.2" gradientUnits="userSpaceOnUse" gradientTransform="matrix(16.477487365328617 0.0 0.0 16.477487365328617 0.0 0.0)" spreadMethod="pad" x1="10.443666564136718" y1="5.259562223127323" x2="-1.205409364712544" y2="16.913171959104794"><stop offset="0.0" stop-color="#17bebb"/><stop offset="0.93" stop-color="#2c3763"/><stop offset="1.0" stop-color="#262d40"/></linearGradient></defs><path fill="url(#p.2)" d="m235.33562 248.7709c0.5277405 0 1.0465088 0.14350891 1.4411926 0.44566345c19.545822 15.438461 25.318039 47.860916 12.028885 68.1021c-0.5112915 0.7599182 -1.2632904 1.2750854 -2.0137787 1.2750854c-0.48439026 0 -0.9941864 -0.24475098 -1.2363892 -0.51516724c-1.2617798 -0.7599182 -1.5024872 -2.2797546 -0.7504883 -3.527649c11.759781 -17.988617 6.255127 -47.617676 -11.036194 -61.291565c-0.99269104 -0.7599182 -1.2617798 -2.524475 -0.50979614 -3.5548248c0.45298767 -0.6042938 1.2767487 -0.9336395 2.0765686 -0.9336395zm-41.14276 -66.11998c-7.9265594 0 -13.98584 12.29155 -16.566238 18.18805c-3.4893494 8.600769 -5.262436 18.74855 -11.007782 26.34616l-0.26760864 0.24324036c2.7642822 -3.79805 -13.77504 -19.751694 -16.271713 -21.02678c-0.58903503 -0.31726074 -1.1765747 -0.45472717 -1.7581329 -0.45472717c-2.653656 0 -5.1712494 2.8553314 -7.020584 4.524719c0.12857056 -0.10574341 0.29301453 -0.15711975 0.48587036 -0.15711975c3.5312195 0 17.046143 16.78305 17.046143 20.153564c0 -2.0350037 -7.7591095 -6.592972 -9.263092 -7.5976257c-6.796341 -4.4552307 -17.512589 -7.9466095 -27.577019 -7.9466095c-9.974731 0 -19.308098 3.429428 -23.54496 12.749313c6.059288 -5.3118286 14.136841 -8.058395 22.17553 -8.058395c4.609123 0 9.204796 0.90193176 13.4012985 2.7405243c3.0064697 1.2750854 9.020905 4.557968 9.020905 8.62796c-1.7656097 -0.11935425 -3.5267334 -0.17977905 -5.278885 -0.17977905c-20.631187 0 -40.055893 8.331848 -51.588425 27.0139c-6.766426 10.878998 -10.042 23.794495 -10.042 36.70999c0 43.058197 40.597084 78.24988 92.738655 80.04013c1.509964 0.052886963 3.0259094 0.080078125 4.547821 0.080078125c27.246628 0 55.861176 -8.63855 74.11977 -30.224304c0.5112915 -0.51516724 0.7519989 -1.0031433 1.2632904 -1.5198059c11.786682 -14.678558 19.30362 -33.94229 19.30362 -53.178802c-0.24221802 -34.218735 -22.621063 -63.924835 -60.582428 -63.924835c-4.1785583 0 -8.545502 0.3595581 -13.091827 1.1134338c1.2348785 -0.7599182 2.738861 -1.5198212 4.2428436 -2.2797394c17.049133 -8.843994 34.85025 -15.953644 53.37645 -20.999588l0 0c-0.83421326 0.17977905 -1.7700958 0.22662354 -2.7313843 0.22662354c-1.0539856 0 -2.1378632 -0.055908203 -3.1559753 -0.055908203c-0.5710907 0 -1.1197662 0.0181427 -1.6310577 0.074035645c-18.5262 1.5183105 -36.56952 8.111282 -51.872467 18.991776c-1.1033173 0.7357483 -5.0337067 4.19841 -7.44368 4.19841c-0.87905884 0 -1.5548096 -0.45776367 -1.8194275 -1.6754303c-1.261795 -5.5611267 5.5031433 -8.085602 9.263107 -10.12059c5.0202484 -3.038147 11.276886 -5.5611115 16.054947 -9.115936c-4.5104523 0 -8.778717 1.5198212 -12.779373 3.2828827c-2.0451813 0.9351654 -7.3973236 4.9673767 -10.240845 4.9673767c-0.29301453 0 -0.56062317 -0.043807983 -0.7953491 -0.13748169c-5.5031433 -2.2797241 2.498169 -18.233368 4.000656 -21.271515c1.7730865 -3.5548096 5.531555 -6.5929565 7.0355377 -10.147781c-0.59202576 -0.13597107 -1.173584 -0.19941711 -1.7461853 -0.19941711z" fill-rule="evenodd"/><defs><linearGradient id="p.3" gradientUnits="userSpaceOnUse" gradientTransform="matrix(7.769699136662068 0.0 0.0 7.769699136662068 0.0 0.0)" spreadMethod="pad" x1="22.15326716942492" y1="4.985094026486703" x2="16.659229707251175" y2="10.479070458769494"><stop offset="0.0" stop-color="#17bebb"/><stop offset="0.5" stop-color="#12918f"/><stop offset="1.0" stop-color="#2c3763"/></linearGradient></defs><path fill="url(#p.3)" d="m172.12534 60.07401c-11.722305 0 -21.342682 9.573292 -21.342682 21.34409c0 11.724564 9.620377 21.34681 21.342682 21.34681c11.768524 0 21.339966 -9.573296 21.339966 -21.34681c0 -11.770798 -9.571442 -21.34409 -21.339966 -21.34409z" fill-rule="evenodd"/><defs><linearGradient id="p.4" gradientUnits="userSpaceOnUse" gradientTransform="matrix(7.764530231180327 0.0 0.0 7.764530231180327 0.0 0.0)" spreadMethod="pad" x1="4.006628782278432" y1="12.517606455202563" x2="-1.4837536495644512" y2="18.007927981581894"><stop offset="0.0" stop-color="#17bebb"/><stop offset="0.73" stop-color="#2c3763"/><stop offset="1.0" stop-color="#262d40"/></linearGradient></defs><path fill="url(#p.4)" d="m31.115131 118.5146c-5.4573536 0 -10.914709 2.077835 -15.064146 6.2280807c-8.350542 8.3032 -8.350542 21.882576 0 30.185783c4.149437 4.152954 9.620388 6.203598 15.039673 6.203598c5.470949 0 10.93918 -2.050644 15.091341 -6.203598c4.051548 -4.0523376 6.2486267 -9.377472 6.2486267 -15.091537c0 -5.7167816 -2.1970787 -11.0392 -6.2486267 -15.094246c-4.1521606 -4.1502457 -9.609512 -6.2280807 -15.066868 -6.2280807z" fill-rule="evenodd"/><defs><linearGradient id="p.5" gradientUnits="userSpaceOnUse" gradientTransform="matrix(7.765180930737905 0.0 0.0 7.765180930737905 0.0 0.0)" spreadMethod="pad" x1="40.326938890826504" y1="12.515638564448919" x2="34.83609642998613" y2="18.006420289971068"><stop offset="0.0" stop-color="#17bebb"/><stop offset="1.0" stop-color="#14a3a1"/></linearGradient></defs><path fill="url(#p.5)" d="m313.17633 118.5146c-5.462799 0 -10.933746 2.077835 -15.107666 6.2280807c-4.00531 4.006096 -6.251343 9.377464 -6.251343 15.094246c0 5.7140656 2.2460327 11.0392 6.251343 15.091537c4.1494446 4.152954 9.620392 6.203598 15.088623 6.203598c5.468231 0 10.939178 -2.050644 15.088623 -6.203598c8.304321 -8.303207 8.304321 -21.882584 0 -30.185783c-4.1494446 -4.1502457 -9.606781 -6.2280807 -15.06958 -6.2280807z" fill-rule="evenodd"/><defs><linearGradient id="p.6" gradientUnits="userSpaceOnUse" gradientTransform="matrix(6.5861907278980905 0.0 0.0 6.5861907278980905 0.0 0.0)" spreadMethod="pad" x1="26.13779438341399" y1="16.48176883504129" x2="21.48062857229672" y2="21.138883275551763"><stop offset="0.0" stop-color="#17bebb"/><stop offset="0.5" stop-color="#12918f"/><stop offset="1.0" stop-color="#2c3763"/></linearGradient></defs><path fill="url(#p.6)" d="m172.12534 113.94825c-2.980194 0 -5.373062 2.3933258 -5.373062 5.3740997l0 39.80802c0 2.9780579 2.392868 5.3713837 5.373062 5.3713837c2.977478 0 5.419281 -2.3933258 5.419281 -5.3713837l0 -39.80802c0 -2.980774 -2.441803 -5.3740997 -5.419281 -5.3740997z" fill-rule="evenodd"/><defs><linearGradient id="p.7" gradientUnits="userSpaceOnUse" gradientTransform="matrix(7.420564955483224 0.0 0.0 7.420564955483224 0.0 0.0)" spreadMethod="pad" x1="9.701385010417285" y1="19.10340650153174" x2="4.4542238501763345" y2="24.350508941641383"><stop offset="0.0" stop-color="#17bebb"/><stop offset="0.73" stop-color="#2c3763"/><stop offset="1.0" stop-color="#262d40"/></linearGradient></defs><path fill="url(#p.7)" d="m57.901577 161.22998c-1.3813324 0 -2.759945 0.5357666 -3.8095436 1.6127625c-2.0991898 2.0996094 -2.0991898 5.4692993 0 7.5688934l28.175941 28.184097c1.0278397 1.0742645 2.441803 1.5638123 3.8095398 1.5638123c1.3677368 0 2.7354736 -0.48954773 3.8095398 -1.5638123c2.0991974 -2.0996094 2.0991974 -5.5209656 0 -7.6205597l-28.175934 -28.132431c-1.0523148 -1.0769958 -2.4309273 -1.6127625 -3.8095436 -1.6127625z" fill-rule="evenodd"/><defs><linearGradient id="p.8" gradientUnits="userSpaceOnUse" gradientTransform="matrix(7.418233284491892 0.0 0.0 7.418233284491892 0.0 0.0)" spreadMethod="pad" x1="36.70457439531586" y1="19.11271004743281" x2="31.459063693812247" y2="24.35816546555948"><stop offset="0.0" stop-color="#17bebb"/><stop offset="1.0" stop-color="#14a3a1"/></linearGradient></defs><path fill="url(#p.8)" d="m286.36542 161.22998c-1.373169 0 -2.7518005 0.5357666 -3.8258667 1.6127625l-28.129715 28.132431c-2.0991821 2.099594 -2.0991821 5.5209503 0 7.6205597c1.0251312 1.0742645 2.4418182 1.5638123 3.809555 1.5638123c1.3677368 0 2.7354736 -0.48954773 3.8095398 -1.5638123l28.126984 -28.184097c2.0991821 -2.099594 2.0991821 -5.469284 0 -7.5688934c-1.0495911 -1.0769958 -2.417328 -1.6127625 -3.7904968 -1.6127625z" fill-rule="evenodd"/></g></svg>