<svg version="1.1" viewBox="0.0 0.0 960.0 720.0" fill="none" stroke="none" stroke-linecap="square" stroke-miterlimit="10" xmlns:xlink="http://www.w3.org/1999/xlink" xmlns="http://www.w3.org/2000/svg"><clipPath id="p.0"><path d="m0 0l960.0 0l0 720.0l-960.0 0l0 -720.0z" clip-rule="nonzero"/></clipPath><g clip-path="url(#p.0)"><path fill="#000000" fill-opacity="0.0" d="m0 0l960.0 0l0 720.0l-960.0 0z" fill-rule="evenodd"/><defs><linearGradient id="p.1" gradientUnits="userSpaceOnUse" gradientTransform="matrix(26.00156117789084 -5.472729857771699 5.472729857771699 26.00156117789084 0.0 0.0)" spreadMethod="pad" x1="2.566242628632545" y1="23.612569407035615" x2="28.567803806523386" y2="23.612569407035615"><stop offset="0.0" stop-color="#ffc914"/><stop offset="1.0" stop-color="#e4572e"/></linearGradient></defs><path fill="url(#p.1)" d="m652.36224 268.4026c-21.133179 4.448059 -43.99762 12.490326 -68.125916 24.036102c-43.124817 20.612396 -81.00842 31.619263 -112.52008 38.25174c-20.304504 4.273651 -37.965973 6.730652 -52.68283 8.772156c-10.583282 1.4721375 -19.87912 2.7696228 -27.574493 4.3893127c-9.997711 2.1042786 -17.289032 4.7528076 -21.16278 9.052338c-3.9546509 4.2934265 -5.05777 10.892731 -3.4747314 20.595856c1.0217285 6.2908325 4.9089355 11.080536 11.983032 14.64444c19.993744 10.052307 63.673615 9.85437 126.481964 -0.73291016c14.154449 -2.3702393 27.82486 -5.031708 40.084564 -7.612091c29.415344 -6.1912537 50.687134 -11.909515 50.973816 -11.969849l40.20465 -10.882599l-186.19162 96.01529c-15.950653 10.252411 -34.02185 17.505493 -52.82135 21.462341c-17.065979 3.5920105 -34.73117 4.4657288 -51.945312 2.3885498l-148.8932 -18.222504c-3.0196228 -0.38964844 -6.1579285 -0.26483154 -9.159027 0.3668213c-3.2788239 0.6901245 -6.3945465 1.9856873 -9.017212 3.875122c-6.7533417 4.9518433 -9.516586 12.039337 -7.3934174 18.792084c1.4528809 4.400177 7.1995697 9.214752 12.261307 10.84729l171.6049 55.38742c23.123352 7.45105 48.494446 8.377991 72.682465 3.2869263c18.629272 -3.9210205 36.5643 -11.415222 52.232483 -22.240234l0.36029053 -0.28399658l165.53354 -79.07172c14.40863 -6.9100037 29.6958 -12.066254 45.543457 -15.401825l168.29047 -35.421265l-41.712708 -140.24673l-54.369385 37.67514l-2.9282837 -4.2283936c-0.109191895 -0.115753174 -11.522949 -15.639282 -38.65985 -23.35559c-19.96399 -5.672516 -43.45923 -5.6722107 -69.60474 -0.16921997z" fill-rule="evenodd"/><path fill="#17bebb" d="m315.33563 308.7709c0.5277405 0 1.0465088 0.14352417 1.4411926 0.4456787c19.545807 15.438446 25.318024 47.8609 12.02887 68.10208c-0.5112915 0.7599182 -1.2632751 1.2750854 -2.013794 1.2750854c-0.484375 0 -0.99417114 -0.24475098 -1.2363586 -0.51516724c-1.2618103 -0.7599182 -1.5025024 -2.2797546 -0.7505188 -3.527649c11.759796 -17.988617 6.2551575 -47.617676 -11.036163 -61.291565c-0.9927063 -0.7599182 -1.2618103 -2.524475 -0.50979614 -3.5548096c0.4529724 -0.6043091 1.2767334 -0.9336548 2.0765686 -0.9336548zm-41.14276 -66.11998c-7.9265747 0 -13.98587 12.29155 -16.566254 18.188065c-3.4893494 8.600739 -5.262436 18.748535 -11.007782 26.34616l-0.26760864 0.2432251c2.7642822 -3.7980652 -13.77504 -19.751678 -16.271713 -21.026764c-0.58903503 -0.31726074 -1.1765747 -0.45474243 -1.7581329 -0.45474243c-2.653656 0 -5.1712494 2.8553467 -7.020584 4.524719c0.12857056 -0.10574341 0.29301453 -0.15710449 0.48587036 -0.15710449c3.5312195 0 17.046143 16.78302 17.046143 20.153534c0 -2.0349731 -7.7591095 -6.5929565 -9.263092 -7.597595c-6.796341 -4.455261 -17.512589 -7.9466248 -27.577026 -7.9466248c-9.974716 0 -19.30809 3.4294434 -23.544952 12.749329c6.0592804 -5.311859 14.136841 -8.058411 22.175522 -8.058411c4.609131 0 9.204803 0.9019165 13.401306 2.740509c3.0064697 1.2750854 9.020905 4.5579834 9.020905 8.62796c-1.7656097 -0.11935425 -3.5267334 -0.17977905 -5.278885 -0.17977905c-20.63118 0 -40.055893 8.331848 -51.588425 27.013916c-6.7664337 10.878998 -10.042007 23.794495 -10.042007 36.70999c0 43.058197 40.59709 78.24988 92.73866 80.04013c1.509964 0.052886963 3.0259094 0.080078125 4.547821 0.080078125c27.246613 0 55.861176 -8.63855 74.11978 -30.224304c0.5112915 -0.51516724 0.75198364 -1.0031433 1.2632751 -1.5198059c11.786682 -14.678558 19.30362 -33.94229 19.30362 -53.178802c-0.24221802 -34.21875 -22.621063 -63.924835 -60.582428 -63.924835c-4.1785583 0 -8.545502 0.3595581 -13.091827 1.1134338c1.2348633 -0.7599182 2.738861 -1.5198364 4.2428284 -2.2797546c17.049133 -8.843994 34.85028 -15.953613 53.376465 -20.999573l0 0c-0.8342285 0.17977905 -1.7700806 0.22662354 -2.7313843 0.22662354c-1.0539856 0 -2.1378784 -0.055908203 -3.1559753 -0.055908203c-0.57110596 0 -1.119751 0.018127441 -1.631073 0.074035645c-18.526184 1.5183105 -36.56949 8.111267 -51.872467 18.99179c-1.103302 0.7357178 -5.0336914 4.198395 -7.4436646 4.198395c-0.87905884 0 -1.5548096 -0.45776367 -1.8194275 -1.6754456c-1.2617798 -5.561096 5.5031433 -8.085571 9.263092 -10.120575c5.0202637 -3.038147 11.276886 -5.5611267 16.054962 -9.115936c-4.5104675 0 -8.778717 1.5198364 -12.779388 3.2828674c-2.045166 0.93518066 -7.3973083 4.967407 -10.240814 4.967407c-0.2930298 0 -0.5606384 -0.043823242 -0.7953491 -0.13748169c-5.5031433 -2.2797546 2.498169 -18.233398 4.000641 -21.27153c1.7731018 -3.5548096 5.531555 -6.5929565 7.0355225 -10.147781c-0.5920105 -0.13597107 -1.173584 -0.19941711 -1.7461548 -0.19941711z" fill-rule="evenodd"/><path fill="#17bebb" d="m252.12534 120.07401c-11.722305 0 -21.342682 9.573296 -21.342682 21.344078c0 11.724564 9.620377 21.346817 21.342682 21.346817c11.768524 0 21.339966 -9.573288 21.339966 -21.346817c0 -11.770782 -9.571442 -21.344078 -21.339966 -21.344078z" fill-rule="evenodd"/><path fill="#17bebb" d="m111.115135 178.5146c-5.4573593 0 -10.914711 2.077835 -15.064148 6.228073c-8.35054 8.303207 -8.35054 21.882584 0 30.185791c4.149437 4.152954 9.620384 6.203598 15.039673 6.203598c5.4709473 0 10.939178 -2.050644 15.091339 -6.203598c4.051552 -4.0523376 6.2486343 -9.377472 6.2486343 -15.091537c0 -5.7167816 -2.1970825 -11.0392 -6.2486343 -15.094254c-4.1521606 -4.150238 -9.609512 -6.228073 -15.066864 -6.228073z" fill-rule="evenodd"/><path fill="#17bebb" d="m393.17633 178.5146c-5.462799 0 -10.933746 2.077835 -15.107666 6.228073c-4.00531 4.0061035 -6.251343 9.377472 -6.251343 15.094254c0 5.7140656 2.2460327 11.0392 6.251343 15.091537c4.1494446 4.152954 9.620392 6.203598 15.088623 6.203598c5.468231 0 10.939178 -2.050644 15.088623 -6.203598c8.304321 -8.303207 8.304321 -21.882584 0 -30.185791c-4.1494446 -4.150238 -9.606781 -6.228073 -15.06958 -6.228073z" fill-rule="evenodd"/><path fill="#17bebb" d="m252.12534 173.94826c-2.980194 0 -5.373062 2.3933105 -5.373062 5.3740845l0 39.80803c0 2.9780579 2.392868 5.3713837 5.373062 5.3713837c2.977478 0 5.419281 -2.3933258 5.419281 -5.3713837l0 -39.80803c0 -2.980774 -2.441803 -5.3740845 -5.419281 -5.3740845z" fill-rule="evenodd"/><path fill="#17bebb" d="m137.90158 221.22998c-1.3813324 0 -2.7599487 0.5357666 -3.8095398 1.6127625c-2.0991974 2.0996094 -2.0991974 5.4692993 0 7.5688934l28.175934 28.184097c1.027832 1.0742798 2.441803 1.5638123 3.8095398 1.5638123c1.3677368 0 2.7354736 -0.48953247 3.8095398 -1.5638123c2.0991974 -2.0996094 2.0991974 -5.5209656 0 -7.6205597l-28.175934 -28.132431c-1.0523071 -1.0769958 -2.4309235 -1.6127625 -3.8095398 -1.6127625z" fill-rule="evenodd"/><path fill="#17bebb" d="m366.36542 221.22998c-1.373169 0 -2.7518005 0.5357666 -3.8258667 1.6127625l-28.1297 28.132431c-2.0992126 2.099594 -2.0992126 5.5209503 0 7.6205597c1.025116 1.0742798 2.441803 1.5638123 3.8095398 1.5638123c1.3677368 0 2.7354736 -0.48953247 3.8095398 -1.5638123l28.126984 -28.184097c2.0991821 -2.099594 2.0991821 -5.469284 0 -7.5688934c-1.0495911 -1.0769958 -2.417328 -1.6127625 -3.7904968 -1.6127625z" fill-rule="evenodd"/></g></svg>