<svg version="1.1" viewBox="0.0 0.0 960.0 720.0" fill="none" stroke="none" stroke-linecap="square" stroke-miterlimit="10" xmlns:xlink="http://www.w3.org/1999/xlink" xmlns="http://www.w3.org/2000/svg"><clipPath id="p.0"><path d="m0 0l960.0 0l0 720.0l-960.0 0l0 -720.0z" clip-rule="nonzero"/></clipPath><g clip-path="url(#p.0)"><path fill="#000000" fill-opacity="0.0" d="m0 0l960.0 0l0 720.0l-960.0 0z" fill-rule="evenodd"/><defs><linearGradient id="p.1" gradientUnits="userSpaceOnUse" gradientTransform="matrix(26.00156117789084 -5.472729857771699 5.472729857771699 26.00156117789084 0.0 0.0)" spreadMethod="pad" x1="2.566242628632545" y1="23.612569407035615" x2="28.567803806523386" y2="23.612569407035615"><stop offset="0.0" stop-color="#ffc914"/><stop offset="1.0" stop-color="#e4572e"/></linearGradient></defs><path fill="url(#p.1)" d="m652.36224 268.4026c-21.133179 4.448059 -43.99762 12.490326 -68.125916 24.036102c-43.124817 20.612396 -81.00842 31.619263 -112.52008 38.25174c-20.304504 4.273651 -37.965973 6.730652 -52.68283 8.772156c-10.583282 1.4721375 -19.87912 2.7696228 -27.574493 4.3893127c-9.997711 2.1042786 -17.289032 4.7528076 -21.16278 9.052338c-3.9546509 4.2934265 -5.05777 10.892731 -3.4747314 20.595856c1.0217285 6.2908325 4.9089355 11.080536 11.983032 14.64444c19.993744 10.052307 63.673615 9.85437 126.481964 -0.73291016c14.154449 -2.3702393 27.82486 -5.031708 40.084564 -7.612091c29.415344 -6.1912537 50.687134 -11.909515 50.973816 -11.969849l40.20465 -10.882599l-186.19162 96.01529c-15.950653 10.252411 -34.02185 17.505493 -52.82135 21.462341c-17.065979 3.5920105 -34.73117 4.4657288 -51.945312 2.3885498l-148.8932 -18.222504c-3.0196228 -0.38964844 -6.1579285 -0.26483154 -9.159027 0.3668213c-3.2788239 0.6901245 -6.3945465 1.9856873 -9.017212 3.875122c-6.7533417 4.9518433 -9.516586 12.039337 -7.3934174 18.792084c1.4528809 4.400177 7.1995697 9.214752 12.261307 10.84729l171.6049 55.38742c23.123352 7.45105 48.494446 8.377991 72.682465 3.2869263c18.629272 -3.9210205 36.5643 -11.415222 52.232483 -22.240234l0.36029053 -0.28399658l165.53354 -79.07172c14.40863 -6.9100037 29.6958 -12.066254 45.543457 -15.401825l168.29047 -35.421265l-41.712708 -140.24673l-54.369385 37.67514l-2.9282837 -4.2283936c-0.109191895 -0.115753174 -11.522949 -15.639282 -38.65985 -23.35559c-19.96399 -5.672516 -43.45923 -5.6722107 -69.60474 -0.16921997z" fill-rule="evenodd"/><path fill="#17bebb" d="m307.77655 243.6982c0.7706909 -0.094696045 1.5541687 0.023223877 2.1851501 0.39660645c31.332611 19.189377 45.620087 65.81853 29.870789 97.959854c-0.6093445 1.2088928 -1.6144104 2.1011963 -2.7103882 2.2358398c-0.70736694 0.08691406 -1.4960632 -0.181427 -1.8985901 -0.53552246c-1.9799194 -0.8907776 -2.606018 -3.0819092 -1.7333374 -5.051361c13.922852 -28.55542 0.5309143 -71.125946 -27.190613 -88.12572c-1.5869751 -0.93904114 -2.298767 -3.4848938 -1.3867798 -5.1345367c0.55233765 -0.9696808 1.6957703 -1.601654 2.8637695 -1.745163zm-72.028336 -89.82216c-11.575333 1.4222107 -18.203003 20.579422 -20.905823 29.710968c-3.5415955 13.270203 -4.2973633 28.50679 -11.314667 40.70703l-0.34684753 0.40559387c3.3505096 -6.0795593 -23.684784 -26.565735 -27.561111 -27.992294c-0.917511 -0.36073303 -1.8003387 -0.45741272 -2.6496124 -0.35307312c-3.875183 0.47613525 -7.035782 5.125534 -9.434784 7.911545c0.1686554 -0.17852783 0.39952087 -0.28355408 0.68115234 -0.318161c5.156723 -0.63357544 27.925247 21.614578 28.53424 26.569626c-0.36769104 -2.991684 -12.522049 -8.300262 -14.899872 -9.507385c-10.729813 -5.3302917 -27.009827 -8.540253 -41.707138 -6.7344513c-14.56633 1.7897034 -27.576424 8.505997 -32.079697 22.96753c7.888771 -8.89621 19.188362 -14.383301 30.927444 -15.825623c6.7308044 -0.82699585 13.604935 -0.32563782 20.065384 1.6243591c4.620804 1.3350983 13.996979 5.082184 14.732346 11.065552c-2.5999298 0.14134216 -5.182663 0.3684845 -7.741379 0.6828613c-30.12819 3.7017365 -56.98912 19.435791 -70.45484 48.969864c-7.91555 17.207458 -10.365356 36.7825 -8.031776 55.769806c7.7798004 63.30063 73.42313 107.75244 149.89012 101.02887c2.2145996 -0.19317627 4.4332733 -0.42520142 6.655777 -0.6982727c39.788864 -4.8887024 80.01451 -22.722504 102.77785 -57.732147c0.65356445 -0.8490906 0.91690063 -1.6096802 1.5701904 -2.4609985c14.560242 -23.69403 22.056793 -53.36267 18.581116 -81.64264c-6.536377 -50.26213 -44.584045 -89.91829 -100.01993 -83.1071c-6.1020203 0.74972534 -12.4142 2.0618591 -18.917114 3.985855c1.6660309 -1.3387299 3.7250214 -2.7257385 5.784027 -4.112747c23.299286 -16.060745 48.0101 -29.70671 74.15265 -40.448883l0 0c-1.1857605 0.41397095 -2.5439758 0.6507416 -3.9477844 0.8232269c-1.539154 0.18910217 -3.13208 0.30140686 -4.6188354 0.48406982c-0.8339844 0.10247803 -1.6319275 0.22756958 -2.3684998 0.40148926c-26.779907 5.5561523 -51.937744 18.485977 -72.31911 37.227325c-1.4782715 1.2795868 -6.59227 7.0753174 -10.111588 7.507721c-1.2837219 0.1577301 -2.353241 -0.39398193 -2.959671 -2.1366272c-2.847412 -7.9490967 6.5754547 -12.874176 11.698517 -16.540482c6.782257 -5.3671875 15.463104 -10.198837 21.798325 -16.28215c-6.5867157 0.8092804 -12.545151 3.809433 -18.068848 7.119156c-2.8176575 1.741745 -9.904968 8.629898 -14.057419 9.140091c-0.42791748 0.052581787 -0.82662964 0.03617859 -1.1863098 -0.059402466c-8.448273 -2.36409 0.35369873 -27.253448 1.9988861 -31.989456c1.946991 -5.5441437 6.886627 -10.684921 8.440643 -16.180786c-0.8891144 -0.09365845 -1.7498474 -0.082595825 -2.5860138 0.020141602z" fill-rule="evenodd"/></g></svg>