<svg version="1.1" viewBox="0.0 0.0 800.0 600.0" fill="none" stroke="none" stroke-linecap="square" stroke-miterlimit="10" xmlns:xlink="http://www.w3.org/1999/xlink" xmlns="http://www.w3.org/2000/svg"><clipPath id="p.0"><path d="m0 0l800.0 0l0 600.0l-800.0 0l0 -600.0z" clip-rule="nonzero"/></clipPath><g clip-path="url(#p.0)"><path fill="#000000" fill-opacity="0.0" d="m0 0l800.0 0l0 600.0l-800.0 0z" fill-rule="evenodd"/><path fill="#17bebb" d="m267.6784 185.4121l32.41446 37.467606l-35.827972 30.995972l-41.1129 -29.942322zm63.81308 -55.206787l32.41446 37.46762l-53.901764 46.632187l-32.41446 -37.46762zm63.81305 -55.20677l32.41446 37.467613l-53.901764 46.63218l-32.41446 -37.467613zm41.998596 -36.27191c8.400696 -7.2677097 18.946777 -9.540192 29.569855 -6.4441032c10.733337 3.1152267 18.475555 10.692368 21.743774 21.39045l1.4494934 4.916996l-52.333588 45.275497l-32.41446 -37.467613l31.871796 -27.573338c0.037719727 -0.03263092 0.07543945 -0.065258026 0.11312866 -0.09788895zm-64.8226 138.8576l32.41446 37.46762l-53.901733 46.63217l-32.41449 -37.467606zm121.744446 -105.32513l15.765961 51.870804l-31.335846 27.109657l-32.41446 -37.467613zm-185.52658 160.56763l32.41446 37.467606l-24.777252 21.435638l-41.14865 -29.911407zm127.6261 -110.41355l32.450195 37.4367l-53.93747 46.6631l-32.41446 -37.46762zm77.88699 15.457314l9.7456665 32.086258c3.0518188 10.010666 1.2226562 20.07219 -4.805847 28.092026l-31.890717 -36.862183zm-164.55978 142.36607l32.41449 37.46762l-13.760315 11.90448l-41.112885 -29.942322zm63.848816 -55.237686l32.41446 37.467606l-53.901764 46.632202l-32.41446 -37.46762zm63.81305 -55.206787l32.450195 37.436707l-53.9375 46.6631l-32.41446 -37.46762zm-34.380524 173.235c15.7039795 -11.531311 37.869354 -9.327484 50.82312 5.6456604c13.570282 15.685791 11.844055 39.558594 -3.8417358 53.128906c-15.6857605 13.570282 -39.520874 11.811401 -53.091187 -3.8743896c-12.953766 -14.973145 -11.945801 -37.225006 1.6534119 -51.04477zm146.30731 -126.57527c15.7039795 -11.531326 37.83362 -9.296585 50.787415 5.6765594c13.636902 15.690598 11.879761 39.52771 -3.8060303 53.097992c-15.68573 13.570282 -39.55658 11.842316 -53.126892 -3.8434448c-12.953735 -14.973175 -11.910095 -37.255936 1.689148 -51.075714zm-467.39783 17.834045c-2.7095795 2.3441467 -3.041565 6.497772 -0.6665039 9.243088c2.4059677 2.7810364 6.5266953 3.07901 9.272003 0.703949l25.668549 -22.20671c11.479477 -9.931274 27.404022 -10.61644 39.69522 -1.74086l168.87617 122.86557l13.68161 9.977264c11.271698 8.202698 25.177765 10.443848 37.924683 7.020447c-4.2411804 15.702301 -0.86053467 33.157867 10.58197 46.384186c18.28949 21.140656 50.47043 23.467651 71.611084 5.1781616c21.176392 -18.320404 23.467651 -50.47043 5.178192 -71.611084c-9.745819 -11.265106 -23.362976 -17.063812 -37.16803 -17.459106l94.75784 -81.978134c-1.6306152 13.749222 2.182434 28.02977 11.928223 39.294876c18.28949 21.140656 50.434692 23.498566 71.611084 5.1781616c21.140686 -18.28949 23.431946 -50.4395 5.142456 -71.58017c-17.29718 -20.065918 -46.981506 -23.181885 -68.07007 -7.9292755c-0.20758057 0.117111206 -0.41711426 0.23594666 -0.63153076 0.42141724l-0.56970215 0.49287415c-0.77923584 0.61169434 -1.5556641 1.1584625 -2.3397827 1.8368073c-0.74835205 0.6474304 -1.3991699 1.3354187 -2.1523438 2.0494843l-141.77945 122.65808c-0.77926636 0.61169434 -1.5556946 1.1584778 -2.3398132 1.836792c-0.71261597 0.61654663 -1.3991394 1.3354187 -2.1523438 2.0494995l-4.3134766 3.7317505c-11.515228 9.962189 -27.342194 10.687897 -39.500122 1.8219604l-6.8914185 -5.009033l143.59778 -124.231155c13.655029 -11.813461 18.868896 -29.849655 13.666809 -47.10382l-35.302917 -116.31272c-4.5415955 -14.833805 -15.673279 -25.899519 -30.60196 -30.185268c-14.93042 -4.287736 -30.244629 -0.9513664 -42.007965 9.225489l-216.2879 187.11778l-8.731918 -6.3461c-17.083221 -12.3967285 -40.082 -11.387558 -55.982162 2.3681946z" fill-rule="evenodd"/><path fill="#e4572e" d="m65.46224 546.2547c51.82834 11.61969 103.43691 -0.5784302 153.87094 -44.118042c-5.5085144 23.831665 -17.617752 39.688293 -35.49829 48.55243l0 0c47.723083 2.7283325 79.4211 -26.39148 101.56224 -74.51224c3.9805298 12.331726 2.2280273 25.72815 -3.6196594 39.919586l0 0c4.8828125E-4 -0.0021362305 53.611603 -50.83139 58.91101 -119.22458c0.5959778 -7.797333 0.41137695 -15.33255 -0.3757019 -22.68106c-0.29711914 1.7663574 -0.62564087 3.5256653 -1.0169678 5.270874c-9.631409 42.954468 -46.321167 71.43451 -81.783936 63.483917c-35.494186 -7.957611 -56.50949 -49.374847 -46.878082 -92.329315c8.150925 -36.351746 35.692886 -62.338013 65.49765 -64.66318c-4.3399353 -1.6675415 -8.809143 -3.0201416 -13.358429 -4.0400696c-13.204773 -2.9604492 -27.095612 -3.114441 -40.52185 0.011199951c-52.0372 12.124207 -88.45595 75.49338 -88.456894 75.49759l0 0c10.592392 -8.60965 21.18927 -11.675049 31.758331 -9.305511c0.55296326 0.1239624 1.1043396 0.26312256 1.6563873 0.41574097c-40.010445 35.666504 -61.634216 87.052124 -71.86656 148.24359l0 0c15.56308 -33.016846 37.441498 -52.381805 65.38669 -57.71353c-22.65509 71.83618 -69.137085 90.429535 -114.00312 101.97128c6.246826 2.0773315 12.493202 3.8216553 18.736252 5.2213135z" fill-rule="evenodd"/><path fill="#ffc914" d="m274.9359 305.56958c-31.395248 0 -56.899155 27.108337 -56.899155 60.478638c0 33.334198 25.503906 60.478607 56.899155 60.478607c31.361298 0 56.897278 -27.14441 56.897278 -60.478607c0 -33.336212 -25.53598 -60.478638 -56.897278 -60.478638z" fill-rule="evenodd"/></g></svg>